<?xml version="1.0" encoding="utf-8"?>
<!-- Generator: Adobe Illustrator 18.1.0, SVG Export Plug-In . SVG Version: 6.00 Build 0)  -->
<svg id="nodeschool-animated-svg" version="1.1" xmlns="http://www.w3.org/2000/svg" xmlns:xlink="http://www.w3.org/1999/xlink" x="0px" y="0px"
   viewBox="0 0 915 980" style="enable-background:new 0 0 915 980;" xml:space="preserve">
<style type="text/css">
  .st0{fill:none;stroke:#82368C;stroke-width:16;stroke-miterlimit:10;}
  .st1{fill:none;stroke:#C6C6C6;stroke-width:16;stroke-miterlimit:10;}
  .st2{fill:none;stroke:#D7DCE0;stroke-width:15;stroke-miterlimit:10;}
  .st3{fill:none;stroke:#000000;stroke-width:6;stroke-miterlimit:10;}
  .st4{fill:#FFFFFF;stroke:#000000;stroke-width:6;stroke-miterlimit:10;}
  .st5{stroke:#000000;stroke-width:2;stroke-miterlimit:10;}
  .st6{font-family:'ArialMT'; font-size:29px;}
  .st7{font-size:29;}
</style>
<g id="polygon_border">
  <path fill="none" stroke="#82368C" stroke-width="16" stroke-miterlimit="10" d="M107.1,249.3L454.6,39.4l351.3,210.7l0.7,422.5
    L455.9,884.4L104.7,673.7L104,254.9C104,252.6,105.2,250.5,107.1,249.3z"/>
</g>
<g id="bottom">
  <line class="st3" x1="187.2" y1="710" x2="187.2" y2="710" data-x="717.6"/>
</g>
<g id="battersea_base">
  <rect id="rect2" x="224.6" y="427.4" class="st3" width="106.8"  height="0" transform="rotate(180 278 567)" data-height="274.2"/>
  <rect id="rect1" x="566.6" y="427.4" class="st3" width="106.8" height="0" transform="rotate(180 620 567)" data-height="274.2"/>
</g>
<g id="battersea_roof">
  <line id="bottom" class="st3" x1="331.4" y1="444.6" x2="331.4" y2="444.6" data-x="568"/>
  <line id="top" class="st3" x1="331.4" y1="521.1" x2="331.4" y2="521.1" data-x="568"/>
</g>
<g id="battersea_chim_base">
  <rect id="chim2" x="235.7" y="405" class="st3" width="84.6" height="0" transform="rotate(180 279 417)" data-height="25"/>
  <rect id="chim1" x="577.6" y="405" class="st3" width="84.6" height="0" transform="rotate(180 620 417)" data-height="25"/>
</g>
<g id="battersea_stairs">
  <rect id="rect1" x="353.8" y="679.3" class="st4" width="189.4" height="0" transform="rotate(180 449 694)" data-height="22.1"/>
  <rect id="rect2" x="365.8" y="657.1" class="st4" width="165.1" height="0" transform="rotate(180 448 672)" data-height="22.1"/>
  <rect id="rect3" x="379.3" y="634.8" class="st4" width="138.3" height="0" transform="rotate(180 448 650)" data-height="22.1"/>
</g>
<g id="battersea_windows">
  <rect id="window2" x="246.7" y="444.6" class="st4" width="61.1" height="45.4" transform="translate(246 444) scale(0)"/>
  <rect id="window1" x="589.4" y="445.6" class="st4" width="61.1" height="47.4" transform="translate(589 445) scale(0)"/>
</g>
<g id="battersea_chimney">
  <polygon id="pol1" class="st4" points="303.4,401.5 252.5,401.5 257.5,243.6 297.4,243.6" transform="translate(0 10)"/>
  <polygon id="pol2" class="st4" points="645.4,401.5 594.5,401.5 598.5,243.6 639.4,243.6" transform="translate(0 10)"/>
  <rect id="chim-small1" x="257.1" y="223.2" class="st4" width="40" height="19.6" transform="translate(0 70)"/>
  <rect id="chim-small2" x="600.2" y="223.2" class="st4" width="37.5" height="19.6" transform="translate(0 70)"/>
</g>
<g id="battersea_door">
  <rect x="415.8" y="550.4" class="st4" width="70.4" height="0" transform="rotate(180 450 595)" data-height="79.4"/>
</g>
</svg>
